<svg xmlns="http://www.w3.org/2000/svg" width="1060" height="658" viewBox="0 0 1060 658">
<rect width="1060" height="658" fill="white"/>
<text x="96" y="30" font-family="system-ui,sans-serif" font-size="16" font-weight="600">Shidoku — loosening (clues removed)</text>
<text x="96" y="48" font-family="system-ui,sans-serif" font-size="10.5" fill="#666">EXPLORATORY · illustration-grade · not citable as a result.</text>
<text x="96" y="62" font-family="system-ui,sans-serif" font-size="10.5" fill="#666">Projection fit ONCE on the pooled union across steps — 35% of variance in 2 components, so the cloud is a weak picture and carries no inference.</text>
<text x="96" y="76" font-family="system-ui,sans-serif" font-size="10.5" fill="#666">× = GAP-no-region (step produced nothing, never interpolated) · ‡ = INSUFFICIENT (region exists, below the pre-declared floor)</text>
<text x="22" y="191.0" font-size="10.5" text-anchor="end" fill="#333" transform="rotate(-90 22 191.0)">1 · cloud (projection)</text>
<rect x="100.0" y="96" width="136.66666666666666" height="190" fill="#fbfbfc" stroke="#e6e6ea"/>
<text x="168" y="191" font-size="22" fill="#c00" text-anchor="middle">×</text>
<text x="168" y="90" font-size="10.5" text-anchor="middle" fill="#999">12 ‡</text>
<rect x="244.66666666666666" y="96" width="136.66666666666666" height="190" fill="#fbfbfc" stroke="#e6e6ea"/>
<circle cx="292.3" cy="150.1" r="2.6" fill="#2171b5" opacity="0.95"/>
<circle cx="272.0" cy="167.4" r="2.6" fill="#2171b5" opacity="0.95"/>
<text x="313" y="90" font-size="10.5" text-anchor="middle" fill="#999">8 ‡</text>
<rect x="389.3333333333333" y="96" width="136.66666666666666" height="190" fill="#fbfbfc" stroke="#e6e6ea"/>
<circle cx="487.2" cy="176.5" r="2.6" fill="#6baed6" opacity="0.95"/>
<text x="458" y="90" font-size="10.5" text-anchor="middle" fill="#999">6 ‡</text>
<rect x="534.0" y="96" width="136.66666666666666" height="190" fill="#fbfbfc" stroke="#e6e6ea"/>
<circle cx="594.5" cy="104.4" r="2.6" fill="#fdae6b" opacity="0.95"/>
<circle cx="609.2" cy="171.0" r="2.6" fill="#fdae6b" opacity="0.95"/>
<circle cx="597.4" cy="178.3" r="2.6" fill="#fdae6b" opacity="0.95"/>
<circle cx="598.6" cy="129.1" r="2.6" fill="#fdae6b" opacity="0.95"/>
<circle cx="600.0" cy="166.1" r="2.6" fill="#fdae6b" opacity="0.95"/>
<circle cx="588.2" cy="173.4" r="2.6" fill="#fdae6b" opacity="0.95"/>
<text x="602" y="90" font-size="10.5" text-anchor="middle" fill="#999">4 ‡</text>
<rect x="678.6666666666666" y="96" width="136.66666666666666" height="190" fill="#fbfbfc" stroke="#e6e6ea"/>
<circle cx="800.5" cy="144.6" r="2.6" fill="#e6550d" opacity="0.95"/>
<circle cx="780.1" cy="155.8" r="2.6" fill="#e6550d" opacity="0.95"/>
<circle cx="802.0" cy="179.2" r="2.6" fill="#e6550d" opacity="0.95"/>
<circle cx="801.9" cy="178.5" r="2.6" fill="#e6550d" opacity="0.95"/>
<circle cx="803.3" cy="213.1" r="2.6" fill="#e6550d" opacity="0.95"/>
<circle cx="783.0" cy="230.4" r="2.6" fill="#e6550d" opacity="0.95"/>
<circle cx="707.6" cy="115.1" r="2.6" fill="#e6550d" opacity="0.95"/>
<circle cx="697.4" cy="123.7" r="2.6" fill="#e6550d" opacity="0.95"/>
<circle cx="708.9" cy="146.6" r="2.6" fill="#e6550d" opacity="0.95"/>
<circle cx="760.3" cy="114.4" r="2.6" fill="#e6550d" opacity="0.95"/>
<circle cx="782.2" cy="134.7" r="2.6" fill="#e6550d" opacity="0.95"/>
<circle cx="761.7" cy="146.0" r="2.6" fill="#e6550d" opacity="0.95"/>
<circle cx="711.8" cy="225.9" r="2.6" fill="#e6550d" opacity="0.95"/>
<circle cx="713.2" cy="257.5" r="2.6" fill="#e6550d" opacity="0.95"/>
<circle cx="703.0" cy="263.1" r="2.6" fill="#e6550d" opacity="0.95"/>
<circle cx="784.9" cy="207.9" r="2.6" fill="#e6550d" opacity="0.95"/>
<circle cx="764.6" cy="225.2" r="2.6" fill="#e6550d" opacity="0.95"/>
<circle cx="765.9" cy="256.8" r="2.6" fill="#e6550d" opacity="0.95"/>
<circle cx="698.4" cy="112.5" r="2.6" fill="#e6550d" opacity="0.95"/>
<circle cx="688.2" cy="121.1" r="2.6" fill="#e6550d" opacity="0.95"/>
<circle cx="691.1" cy="190.3" r="2.6" fill="#e6550d" opacity="0.95"/>
<circle cx="690.9" cy="188.9" r="2.6" fill="#e6550d" opacity="0.95"/>
<circle cx="704.0" cy="252.5" r="2.6" fill="#e6550d" opacity="0.95"/>
<circle cx="693.8" cy="258.2" r="2.6" fill="#e6550d" opacity="0.95"/>
<text x="747" y="90" font-size="10.5" text-anchor="middle" fill="#222">2</text>
<rect x="823.3333333333333" y="96" width="136.66666666666666" height="190" fill="#fbfbfc" stroke="#e6e6ea"/>
<circle cx="913.2" cy="146.7" r="1.6" fill="#a63603" opacity="0.6"/>
<circle cx="892.8" cy="164.0" r="1.6" fill="#a63603" opacity="0.6"/>
<circle cx="889.4" cy="155.3" r="1.6" fill="#a63603" opacity="0.6"/>
<circle cx="869.1" cy="172.6" r="1.6" fill="#a63603" opacity="0.6"/>
<circle cx="914.6" cy="181.3" r="1.6" fill="#a63603" opacity="0.6"/>
<circle cx="870.4" cy="204.2" r="1.6" fill="#a63603" opacity="0.6"/>
<circle cx="929.1" cy="145.1" r="1.6" fill="#a63603" opacity="0.6"/>
<circle cx="886.6" cy="172.4" r="1.6" fill="#a63603" opacity="0.6"/>
<circle cx="930.5" cy="179.7" r="1.6" fill="#a63603" opacity="0.6"/>
<circle cx="899.8" cy="196.6" r="1.6" fill="#a63603" opacity="0.6"/>
<circle cx="918.7" cy="187.1" r="1.6" fill="#a63603" opacity="0.6"/>
<circle cx="888.0" cy="203.9" r="1.6" fill="#a63603" opacity="0.6"/>
<circle cx="914.5" cy="180.6" r="1.6" fill="#a63603" opacity="0.6"/>
<circle cx="870.5" cy="209.5" r="1.6" fill="#a63603" opacity="0.6"/>
<circle cx="915.9" cy="215.2" r="1.6" fill="#a63603" opacity="0.6"/>
<circle cx="895.5" cy="226.5" r="1.6" fill="#a63603" opacity="0.6"/>
<circle cx="892.3" cy="229.8" r="1.6" fill="#a63603" opacity="0.6"/>
<circle cx="871.8" cy="241.1" r="1.6" fill="#a63603" opacity="0.6"/>
<circle cx="930.5" cy="179.1" r="1.6" fill="#a63603" opacity="0.6"/>
<circle cx="899.9" cy="205.0" r="1.6" fill="#a63603" opacity="0.6"/>
<circle cx="918.6" cy="183.4" r="1.6" fill="#a63603" opacity="0.6"/>
<circle cx="888.1" cy="209.3" r="1.6" fill="#a63603" opacity="0.6"/>
<circle cx="931.9" cy="213.7" r="1.6" fill="#a63603" opacity="0.6"/>
<circle cx="889.4" cy="240.9" r="1.6" fill="#a63603" opacity="0.6"/>
<circle cx="874.8" cy="116.0" r="1.6" fill="#a63603" opacity="0.6"/>
<circle cx="864.6" cy="124.7" r="1.6" fill="#a63603" opacity="0.6"/>
<circle cx="862.9" cy="120.3" r="1.6" fill="#a63603" opacity="0.6"/>
<circle cx="852.7" cy="129.0" r="1.6" fill="#a63603" opacity="0.6"/>
<circle cx="877.6" cy="185.2" r="1.6" fill="#a63603" opacity="0.6"/>
<circle cx="855.5" cy="192.1" r="1.6" fill="#a63603" opacity="0.6"/>
<circle cx="887.9" cy="128.5" r="1.6" fill="#a63603" opacity="0.6"/>
<circle cx="906.7" cy="112.9" r="1.6" fill="#a63603" opacity="0.6"/>
<circle cx="921.3" cy="174.8" r="1.6" fill="#a63603" opacity="0.6"/>
<circle cx="890.6" cy="191.7" r="1.6" fill="#a63603" opacity="0.6"/>
<circle cx="909.5" cy="182.1" r="1.6" fill="#a63603" opacity="0.6"/>
<circle cx="878.8" cy="199.0" r="1.6" fill="#a63603" opacity="0.6"/>
<circle cx="877.5" cy="183.8" r="1.6" fill="#a63603" opacity="0.6"/>
<circle cx="855.6" cy="202.8" r="1.6" fill="#a63603" opacity="0.6"/>
<circle cx="880.3" cy="253.1" r="1.6" fill="#a63603" opacity="0.6"/>
<circle cx="870.1" cy="258.7" r="1.6" fill="#a63603" opacity="0.6"/>
<circle cx="868.5" cy="260.4" r="1.6" fill="#a63603" opacity="0.6"/>
<circle cx="858.3" cy="266.0" r="1.6" fill="#a63603" opacity="0.6"/>
<circle cx="921.2" cy="176.5" r="1.6" fill="#a63603" opacity="0.6"/>
<circle cx="890.7" cy="202.4" r="1.6" fill="#a63603" opacity="0.6"/>
<circle cx="909.4" cy="180.8" r="1.6" fill="#a63603" opacity="0.6"/>
<circle cx="878.9" cy="206.7" r="1.6" fill="#a63603" opacity="0.6"/>
<circle cx="893.5" cy="265.6" r="1.6" fill="#a63603" opacity="0.6"/>
<circle cx="912.2" cy="250.0" r="1.6" fill="#a63603" opacity="0.6"/>
<circle cx="865.6" cy="113.4" r="1.6" fill="#a63603" opacity="0.6"/>
<circle cx="855.4" cy="122.1" r="1.6" fill="#a63603" opacity="0.6"/>
<circle cx="853.7" cy="117.7" r="1.6" fill="#a63603" opacity="0.6"/>
<circle cx="843.5" cy="126.4" r="1.6" fill="#a63603" opacity="0.6"/>
<circle cx="859.5" cy="216.8" r="1.6" fill="#a63603" opacity="0.6"/>
<circle cx="858.0" cy="221.5" r="1.6" fill="#a63603" opacity="0.6"/>
<circle cx="873.0" cy="121.9" r="1.6" fill="#a63603" opacity="0.6"/>
<circle cx="869.6" cy="116.2" r="1.6" fill="#a63603" opacity="0.6"/>
<circle cx="897.5" cy="205.3" r="1.6" fill="#a63603" opacity="0.6"/>
<circle cx="877.1" cy="216.6" r="1.6" fill="#a63603" opacity="0.6"/>
<circle cx="873.9" cy="220.0" r="1.6" fill="#a63603" opacity="0.6"/>
<circle cx="853.5" cy="231.2" r="1.6" fill="#a63603" opacity="0.6"/>
<circle cx="856.8" cy="159.0" r="1.6" fill="#a63603" opacity="0.6"/>
<circle cx="855.0" cy="151.6" r="1.6" fill="#a63603" opacity="0.6"/>
<circle cx="871.1" cy="248.1" r="1.6" fill="#a63603" opacity="0.6"/>
<circle cx="860.9" cy="253.8" r="1.6" fill="#a63603" opacity="0.6"/>
<circle cx="859.3" cy="255.4" r="1.6" fill="#a63603" opacity="0.6"/>
<circle cx="849.1" cy="261.1" r="1.6" fill="#a63603" opacity="0.6"/>
<circle cx="894.7" cy="141.5" r="1.6" fill="#a63603" opacity="0.6"/>
<circle cx="874.4" cy="158.8" r="1.6" fill="#a63603" opacity="0.6"/>
<circle cx="871.0" cy="150.1" r="1.6" fill="#a63603" opacity="0.6"/>
<circle cx="850.7" cy="167.4" r="1.6" fill="#a63603" opacity="0.6"/>
<circle cx="878.5" cy="253.5" r="1.6" fill="#a63603" opacity="0.6"/>
<circle cx="875.3" cy="253.9" r="1.6" fill="#a63603" opacity="0.6"/>
<circle cx="929.3" cy="146.1" r="1.6" fill="#a63603" opacity="0.6"/>
<circle cx="883.5" cy="170.7" r="1.6" fill="#a63603" opacity="0.6"/>
<circle cx="930.7" cy="180.7" r="1.6" fill="#a63603" opacity="0.6"/>
<circle cx="920.5" cy="189.4" r="1.6" fill="#a63603" opacity="0.6"/>
<circle cx="895.1" cy="193.6" r="1.6" fill="#a63603" opacity="0.6"/>
<circle cx="884.9" cy="202.3" r="1.6" fill="#a63603" opacity="0.6"/>
<circle cx="945.2" cy="144.6" r="1.6" fill="#a63603" opacity="0.6"/>
<circle cx="924.7" cy="155.8" r="1.6" fill="#a63603" opacity="0.6"/>
<circle cx="921.6" cy="159.2" r="1.6" fill="#a63603" opacity="0.6"/>
<circle cx="901.1" cy="170.5" r="1.6" fill="#a63603" opacity="0.6"/>
<circle cx="946.6" cy="179.2" r="1.6" fill="#a63603" opacity="0.6"/>
<circle cx="902.5" cy="202.1" r="1.6" fill="#a63603" opacity="0.6"/>
<circle cx="930.6" cy="180.1" r="1.6" fill="#a63603" opacity="0.6"/>
<circle cx="920.4" cy="185.7" r="1.6" fill="#a63603" opacity="0.6"/>
<circle cx="895.2" cy="202.0" r="1.6" fill="#a63603" opacity="0.6"/>
<circle cx="885.0" cy="207.6" r="1.6" fill="#a63603" opacity="0.6"/>
<circle cx="932.1" cy="214.7" r="1.6" fill="#a63603" opacity="0.6"/>
<circle cx="886.3" cy="239.2" r="1.6" fill="#a63603" opacity="0.6"/>
<circle cx="946.6" cy="178.5" r="1.6" fill="#a63603" opacity="0.6"/>
<circle cx="902.5" cy="207.4" r="1.6" fill="#a63603" opacity="0.6"/>
<circle cx="948.0" cy="213.1" r="1.6" fill="#a63603" opacity="0.6"/>
<circle cx="927.7" cy="230.4" r="1.6" fill="#a63603" opacity="0.6"/>
<circle cx="924.3" cy="221.7" r="1.6" fill="#a63603" opacity="0.6"/>
<circle cx="903.9" cy="239.0" r="1.6" fill="#a63603" opacity="0.6"/>
<circle cx="864.1" cy="110.8" r="1.6" fill="#a63603" opacity="0.6"/>
<circle cx="853.9" cy="119.4" r="1.6" fill="#a63603" opacity="0.6"/>
<circle cx="852.2" cy="115.1" r="1.6" fill="#a63603" opacity="0.6"/>
<circle cx="842.1" cy="123.7" r="1.6" fill="#a63603" opacity="0.6"/>
<circle cx="855.4" cy="154.0" r="1.6" fill="#a63603" opacity="0.6"/>
<circle cx="853.6" cy="146.6" r="1.6" fill="#a63603" opacity="0.6"/>
<circle cx="905.0" cy="114.4" r="1.6" fill="#a63603" opacity="0.6"/>
<circle cx="901.8" cy="114.8" r="1.6" fill="#a63603" opacity="0.6"/>
<circle cx="926.8" cy="134.7" r="1.6" fill="#a63603" opacity="0.6"/>
<circle cx="906.3" cy="146.0" r="1.6" fill="#a63603" opacity="0.6"/>
<circle cx="903.2" cy="149.4" r="1.6" fill="#a63603" opacity="0.6"/>
<circle cx="882.7" cy="160.6" r="1.6" fill="#a63603" opacity="0.6"/>
<circle cx="858.0" cy="221.2" r="1.6" fill="#a63603" opacity="0.6"/>
<circle cx="856.5" cy="225.9" r="1.6" fill="#a63603" opacity="0.6"/>
<circle cx="869.7" cy="250.1" r="1.6" fill="#a63603" opacity="0.6"/>
<circle cx="859.4" cy="255.8" r="1.6" fill="#a63603" opacity="0.6"/>
<circle cx="857.9" cy="257.5" r="1.6" fill="#a63603" opacity="0.6"/>
<circle cx="847.6" cy="263.1" r="1.6" fill="#a63603" opacity="0.6"/>
<circle cx="929.6" cy="207.9" r="1.6" fill="#a63603" opacity="0.6"/>
<circle cx="909.2" cy="225.2" r="1.6" fill="#a63603" opacity="0.6"/>
<circle cx="905.8" cy="216.5" r="1.6" fill="#a63603" opacity="0.6"/>
<circle cx="885.5" cy="233.8" r="1.6" fill="#a63603" opacity="0.6"/>
<circle cx="910.6" cy="256.8" r="1.6" fill="#a63603" opacity="0.6"/>
<circle cx="907.3" cy="251.1" r="1.6" fill="#a63603" opacity="0.6"/>
<circle cx="854.9" cy="108.2" r="1.6" fill="#a63603" opacity="0.6"/>
<circle cx="844.7" cy="116.8" r="1.6" fill="#a63603" opacity="0.6"/>
<circle cx="843.0" cy="112.5" r="1.6" fill="#a63603" opacity="0.6"/>
<circle cx="832.9" cy="121.1" r="1.6" fill="#a63603" opacity="0.6"/>
<circle cx="857.6" cy="171.3" r="1.6" fill="#a63603" opacity="0.6"/>
<circle cx="835.7" cy="190.3" r="1.6" fill="#a63603" opacity="0.6"/>
<circle cx="890.1" cy="107.7" r="1.6" fill="#a63603" opacity="0.6"/>
<circle cx="864.8" cy="118.0" r="1.6" fill="#a63603" opacity="0.6"/>
<circle cx="903.0" cy="165.3" r="1.6" fill="#a63603" opacity="0.6"/>
<circle cx="892.8" cy="170.9" r="1.6" fill="#a63603" opacity="0.6"/>
<circle cx="867.6" cy="187.2" r="1.6" fill="#a63603" opacity="0.6"/>
<circle cx="857.4" cy="192.9" r="1.6" fill="#a63603" opacity="0.6"/>
<circle cx="857.7" cy="182.0" r="1.6" fill="#a63603" opacity="0.6"/>
<circle cx="835.6" cy="188.9" r="1.6" fill="#a63603" opacity="0.6"/>
<circle cx="860.5" cy="245.2" r="1.6" fill="#a63603" opacity="0.6"/>
<circle cx="850.2" cy="250.8" r="1.6" fill="#a63603" opacity="0.6"/>
<circle cx="848.7" cy="252.5" r="1.6" fill="#a63603" opacity="0.6"/>
<circle cx="838.4" cy="258.2" r="1.6" fill="#a63603" opacity="0.6"/>
<circle cx="903.1" cy="173.0" r="1.6" fill="#a63603" opacity="0.6"/>
<circle cx="892.9" cy="181.6" r="1.6" fill="#a63603" opacity="0.6"/>
<circle cx="867.5" cy="185.9" r="1.6" fill="#a63603" opacity="0.6"/>
<circle cx="857.3" cy="194.5" r="1.6" fill="#a63603" opacity="0.6"/>
<circle cx="895.6" cy="244.8" r="1.6" fill="#a63603" opacity="0.6"/>
<circle cx="870.3" cy="255.1" r="1.6" fill="#a63603" opacity="0.6"/>
<circle cx="907.0" cy="114.9" r="1.6" fill="#a63603" opacity="0.6"/>
<circle cx="881.7" cy="125.2" r="1.6" fill="#a63603" opacity="0.6"/>
<circle cx="920.0" cy="175.5" r="1.6" fill="#a63603" opacity="0.6"/>
<circle cx="909.9" cy="184.1" r="1.6" fill="#a63603" opacity="0.6"/>
<circle cx="884.4" cy="188.4" r="1.6" fill="#a63603" opacity="0.6"/>
<circle cx="874.3" cy="197.0" r="1.6" fill="#a63603" opacity="0.6"/>
<circle cx="938.9" cy="111.8" r="1.6" fill="#a63603" opacity="0.6"/>
<circle cx="928.7" cy="117.5" r="1.6" fill="#a63603" opacity="0.6"/>
<circle cx="927.1" cy="119.2" r="1.6" fill="#a63603" opacity="0.6"/>
<circle cx="916.9" cy="124.8" r="1.6" fill="#a63603" opacity="0.6"/>
<circle cx="941.8" cy="181.1" r="1.6" fill="#a63603" opacity="0.6"/>
<circle cx="919.6" cy="188.0" r="1.6" fill="#a63603" opacity="0.6"/>
<circle cx="920.0" cy="177.1" r="1.6" fill="#a63603" opacity="0.6"/>
<circle cx="909.7" cy="182.8" r="1.6" fill="#a63603" opacity="0.6"/>
<circle cx="884.5" cy="199.1" r="1.6" fill="#a63603" opacity="0.6"/>
<circle cx="874.3" cy="204.7" r="1.6" fill="#a63603" opacity="0.6"/>
<circle cx="912.6" cy="252.0" r="1.6" fill="#a63603" opacity="0.6"/>
<circle cx="887.3" cy="262.3" r="1.6" fill="#a63603" opacity="0.6"/>
<circle cx="941.6" cy="179.7" r="1.6" fill="#a63603" opacity="0.6"/>
<circle cx="919.7" cy="198.7" r="1.6" fill="#a63603" opacity="0.6"/>
<circle cx="944.5" cy="248.9" r="1.6" fill="#a63603" opacity="0.6"/>
<circle cx="934.3" cy="257.5" r="1.6" fill="#a63603" opacity="0.6"/>
<circle cx="932.6" cy="253.2" r="1.6" fill="#a63603" opacity="0.6"/>
<circle cx="922.4" cy="261.8" r="1.6" fill="#a63603" opacity="0.6"/>
<circle cx="870.1" cy="118.9" r="1.6" fill="#a63603" opacity="0.6"/>
<circle cx="866.7" cy="113.2" r="1.6" fill="#a63603" opacity="0.6"/>
<circle cx="891.8" cy="136.2" r="1.6" fill="#a63603" opacity="0.6"/>
<circle cx="871.5" cy="153.5" r="1.6" fill="#a63603" opacity="0.6"/>
<circle cx="868.1" cy="144.8" r="1.6" fill="#a63603" opacity="0.6"/>
<circle cx="847.7" cy="162.1" r="1.6" fill="#a63603" opacity="0.6"/>
<circle cx="929.7" cy="106.9" r="1.6" fill="#a63603" opacity="0.6"/>
<circle cx="919.5" cy="112.5" r="1.6" fill="#a63603" opacity="0.6"/>
<circle cx="917.9" cy="114.2" r="1.6" fill="#a63603" opacity="0.6"/>
<circle cx="907.7" cy="119.9" r="1.6" fill="#a63603" opacity="0.6"/>
<circle cx="920.8" cy="144.1" r="1.6" fill="#a63603" opacity="0.6"/>
<circle cx="919.3" cy="148.8" r="1.6" fill="#a63603" opacity="0.6"/>
<circle cx="894.6" cy="209.4" r="1.6" fill="#a63603" opacity="0.6"/>
<circle cx="874.1" cy="220.6" r="1.6" fill="#a63603" opacity="0.6"/>
<circle cx="871.0" cy="224.0" r="1.6" fill="#a63603" opacity="0.6"/>
<circle cx="850.5" cy="235.3" r="1.6" fill="#a63603" opacity="0.6"/>
<circle cx="875.6" cy="255.2" r="1.6" fill="#a63603" opacity="0.6"/>
<circle cx="872.4" cy="255.6" r="1.6" fill="#a63603" opacity="0.6"/>
<circle cx="923.7" cy="223.4" r="1.6" fill="#a63603" opacity="0.6"/>
<circle cx="922.0" cy="216.0" r="1.6" fill="#a63603" opacity="0.6"/>
<circle cx="935.3" cy="246.3" r="1.6" fill="#a63603" opacity="0.6"/>
<circle cx="925.1" cy="254.9" r="1.6" fill="#a63603" opacity="0.6"/>
<circle cx="923.4" cy="250.6" r="1.6" fill="#a63603" opacity="0.6"/>
<circle cx="913.2" cy="259.2" r="1.6" fill="#a63603" opacity="0.6"/>
<circle cx="873.4" cy="131.0" r="1.6" fill="#a63603" opacity="0.6"/>
<circle cx="853.1" cy="148.3" r="1.6" fill="#a63603" opacity="0.6"/>
<circle cx="849.7" cy="139.6" r="1.6" fill="#a63603" opacity="0.6"/>
<circle cx="829.3" cy="156.9" r="1.6" fill="#a63603" opacity="0.6"/>
<circle cx="874.8" cy="162.6" r="1.6" fill="#a63603" opacity="0.6"/>
<circle cx="830.8" cy="191.5" r="1.6" fill="#a63603" opacity="0.6"/>
<circle cx="891.0" cy="130.8" r="1.6" fill="#a63603" opacity="0.6"/>
<circle cx="845.3" cy="155.3" r="1.6" fill="#a63603" opacity="0.6"/>
<circle cx="892.4" cy="162.4" r="1.6" fill="#a63603" opacity="0.6"/>
<circle cx="882.1" cy="168.0" r="1.6" fill="#a63603" opacity="0.6"/>
<circle cx="856.9" cy="184.3" r="1.6" fill="#a63603" opacity="0.6"/>
<circle cx="846.7" cy="189.9" r="1.6" fill="#a63603" opacity="0.6"/>
<circle cx="874.8" cy="167.9" r="1.6" fill="#a63603" opacity="0.6"/>
<circle cx="830.7" cy="190.8" r="1.6" fill="#a63603" opacity="0.6"/>
<circle cx="876.2" cy="199.5" r="1.6" fill="#a63603" opacity="0.6"/>
<circle cx="855.7" cy="210.8" r="1.6" fill="#a63603" opacity="0.6"/>
<circle cx="852.6" cy="214.2" r="1.6" fill="#a63603" opacity="0.6"/>
<circle cx="832.1" cy="225.4" r="1.6" fill="#a63603" opacity="0.6"/>
<circle cx="892.4" cy="167.7" r="1.6" fill="#a63603" opacity="0.6"/>
<circle cx="882.2" cy="176.4" r="1.6" fill="#a63603" opacity="0.6"/>
<circle cx="856.8" cy="180.6" r="1.6" fill="#a63603" opacity="0.6"/>
<circle cx="846.6" cy="189.3" r="1.6" fill="#a63603" opacity="0.6"/>
<circle cx="893.8" cy="199.3" r="1.6" fill="#a63603" opacity="0.6"/>
<circle cx="848.1" cy="223.9" r="1.6" fill="#a63603" opacity="0.6"/>
<circle cx="902.0" cy="116.1" r="1.6" fill="#a63603" opacity="0.6"/>
<circle cx="898.8" cy="116.5" r="1.6" fill="#a63603" opacity="0.6"/>
<circle cx="926.7" cy="202.6" r="1.6" fill="#a63603" opacity="0.6"/>
<circle cx="906.3" cy="219.9" r="1.6" fill="#a63603" opacity="0.6"/>
<circle cx="902.9" cy="211.2" r="1.6" fill="#a63603" opacity="0.6"/>
<circle cx="882.6" cy="228.5" r="1.6" fill="#a63603" opacity="0.6"/>
<circle cx="928.2" cy="108.9" r="1.6" fill="#a63603" opacity="0.6"/>
<circle cx="918.0" cy="114.6" r="1.6" fill="#a63603" opacity="0.6"/>
<circle cx="916.4" cy="116.2" r="1.6" fill="#a63603" opacity="0.6"/>
<circle cx="906.2" cy="121.9" r="1.6" fill="#a63603" opacity="0.6"/>
<circle cx="922.3" cy="218.4" r="1.6" fill="#a63603" opacity="0.6"/>
<circle cx="920.5" cy="211.0" r="1.6" fill="#a63603" opacity="0.6"/>
<circle cx="923.9" cy="138.8" r="1.6" fill="#a63603" opacity="0.6"/>
<circle cx="903.4" cy="150.0" r="1.6" fill="#a63603" opacity="0.6"/>
<circle cx="900.3" cy="153.4" r="1.6" fill="#a63603" opacity="0.6"/>
<circle cx="879.8" cy="164.7" r="1.6" fill="#a63603" opacity="0.6"/>
<circle cx="907.7" cy="253.8" r="1.6" fill="#a63603" opacity="0.6"/>
<circle cx="904.4" cy="248.1" r="1.6" fill="#a63603" opacity="0.6"/>
<circle cx="919.3" cy="148.5" r="1.6" fill="#a63603" opacity="0.6"/>
<circle cx="917.8" cy="153.2" r="1.6" fill="#a63603" opacity="0.6"/>
<circle cx="933.8" cy="243.6" r="1.6" fill="#a63603" opacity="0.6"/>
<circle cx="923.6" cy="252.3" r="1.6" fill="#a63603" opacity="0.6"/>
<circle cx="921.9" cy="247.9" r="1.6" fill="#a63603" opacity="0.6"/>
<circle cx="911.8" cy="256.6" r="1.6" fill="#a63603" opacity="0.6"/>
<circle cx="865.1" cy="120.0" r="1.6" fill="#a63603" opacity="0.6"/>
<circle cx="883.9" cy="104.4" r="1.6" fill="#a63603" opacity="0.6"/>
<circle cx="898.5" cy="163.3" r="1.6" fill="#a63603" opacity="0.6"/>
<circle cx="868.0" cy="189.2" r="1.6" fill="#a63603" opacity="0.6"/>
<circle cx="886.6" cy="167.6" r="1.6" fill="#a63603" opacity="0.6"/>
<circle cx="856.1" cy="193.5" r="1.6" fill="#a63603" opacity="0.6"/>
<circle cx="919.0" cy="104.0" r="1.6" fill="#a63603" opacity="0.6"/>
<circle cx="908.8" cy="109.6" r="1.6" fill="#a63603" opacity="0.6"/>
<circle cx="907.2" cy="111.3" r="1.6" fill="#a63603" opacity="0.6"/>
<circle cx="897.0" cy="116.9" r="1.6" fill="#a63603" opacity="0.6"/>
<circle cx="921.8" cy="167.2" r="1.6" fill="#a63603" opacity="0.6"/>
<circle cx="899.9" cy="186.2" r="1.6" fill="#a63603" opacity="0.6"/>
<circle cx="898.5" cy="171.0" r="1.6" fill="#a63603" opacity="0.6"/>
<circle cx="867.8" cy="187.9" r="1.6" fill="#a63603" opacity="0.6"/>
<circle cx="886.7" cy="178.3" r="1.6" fill="#a63603" opacity="0.6"/>
<circle cx="856.0" cy="195.2" r="1.6" fill="#a63603" opacity="0.6"/>
<circle cx="870.7" cy="257.1" r="1.6" fill="#a63603" opacity="0.6"/>
<circle cx="889.4" cy="241.5" r="1.6" fill="#a63603" opacity="0.6"/>
<circle cx="921.9" cy="177.9" r="1.6" fill="#a63603" opacity="0.6"/>
<circle cx="899.7" cy="184.8" r="1.6" fill="#a63603" opacity="0.6"/>
<circle cx="924.6" cy="241.0" r="1.6" fill="#a63603" opacity="0.6"/>
<circle cx="914.4" cy="249.7" r="1.6" fill="#a63603" opacity="0.6"/>
<circle cx="912.7" cy="245.3" r="1.6" fill="#a63603" opacity="0.6"/>
<circle cx="902.6" cy="254.0" r="1.6" fill="#a63603" opacity="0.6"/>
<circle cx="887.9" cy="129.1" r="1.6" fill="#a63603" opacity="0.6"/>
<circle cx="845.4" cy="156.3" r="1.6" fill="#a63603" opacity="0.6"/>
<circle cx="889.3" cy="160.7" r="1.6" fill="#a63603" opacity="0.6"/>
<circle cx="858.8" cy="186.6" r="1.6" fill="#a63603" opacity="0.6"/>
<circle cx="877.4" cy="165.0" r="1.6" fill="#a63603" opacity="0.6"/>
<circle cx="846.9" cy="190.9" r="1.6" fill="#a63603" opacity="0.6"/>
<circle cx="905.5" cy="128.9" r="1.6" fill="#a63603" opacity="0.6"/>
<circle cx="885.0" cy="140.2" r="1.6" fill="#a63603" opacity="0.6"/>
<circle cx="881.9" cy="143.5" r="1.6" fill="#a63603" opacity="0.6"/>
<circle cx="861.4" cy="154.8" r="1.6" fill="#a63603" opacity="0.6"/>
<circle cx="906.8" cy="160.5" r="1.6" fill="#a63603" opacity="0.6"/>
<circle cx="862.8" cy="189.4" r="1.6" fill="#a63603" opacity="0.6"/>
<circle cx="889.3" cy="166.1" r="1.6" fill="#a63603" opacity="0.6"/>
<circle cx="858.6" cy="182.9" r="1.6" fill="#a63603" opacity="0.6"/>
<circle cx="877.5" cy="173.4" r="1.6" fill="#a63603" opacity="0.6"/>
<circle cx="846.8" cy="190.3" r="1.6" fill="#a63603" opacity="0.6"/>
<circle cx="890.7" cy="197.6" r="1.6" fill="#a63603" opacity="0.6"/>
<circle cx="848.2" cy="224.9" r="1.6" fill="#a63603" opacity="0.6"/>
<circle cx="906.9" cy="165.8" r="1.6" fill="#a63603" opacity="0.6"/>
<circle cx="862.7" cy="188.7" r="1.6" fill="#a63603" opacity="0.6"/>
<circle cx="908.3" cy="197.4" r="1.6" fill="#a63603" opacity="0.6"/>
<circle cx="887.9" cy="214.7" r="1.6" fill="#a63603" opacity="0.6"/>
<circle cx="884.5" cy="206.0" r="1.6" fill="#a63603" opacity="0.6"/>
<circle cx="864.2" cy="223.3" r="1.6" fill="#a63603" opacity="0.6"/>
<text x="892" y="90" font-size="10.5" text-anchor="middle" fill="#222">0</text>
<text x="22" y="395.0" font-size="10.5" text-anchor="end" fill="#333" transform="rotate(-90 22 395.0)">2 · coherence dial</text>
<line x1="96" y1="460.0" x2="964" y2="460.0" stroke="#ddd"/>
<text x="84" y="463.5" font-size="9" text-anchor="end" fill="#777">0.00</text>
<text x="84" y="401.5" font-size="9" text-anchor="end" fill="#777">0.38</text>
<text x="84" y="339.5" font-size="9" text-anchor="end" fill="#777">0.75</text>
<text x="168" y="395" font-size="18" fill="#c00" text-anchor="middle">×</text>
<rect x="255.1" y="336.4" width="115.7" height="4.8" fill="#2171b5" opacity="0.45"/>
<text x="458" y="395" font-size="18" fill="#c00" text-anchor="middle">×</text>
<rect x="583.0" y="392.8" width="38.6" height="4.8" fill="#fdae6b" opacity="0.45"/>
<rect x="573.4" y="375.9" width="57.9" height="4.8" fill="#fdae6b" opacity="0.45"/>
<rect x="563.8" y="364.6" width="77.2" height="4.8" fill="#fdae6b" opacity="0.45"/>
<rect x="544.5" y="336.4" width="115.7" height="4.8" fill="#fdae6b" opacity="0.45"/>
<rect x="744.4" y="437.9" width="5.3" height="4.8" fill="#e6550d" opacity="0.45"/>
<rect x="741.7" y="426.6" width="10.5" height="4.8" fill="#e6550d" opacity="0.45"/>
<rect x="704.9" y="415.3" width="84.2" height="4.8" fill="#e6550d" opacity="0.45"/>
<rect x="689.1" y="392.8" width="115.7" height="4.8" fill="#e6550d" opacity="0.45"/>
<rect x="723.3" y="375.9" width="47.3" height="4.8" fill="#e6550d" opacity="0.45"/>
<rect x="720.7" y="364.6" width="52.6" height="4.8" fill="#e6550d" opacity="0.45"/>
<rect x="723.3" y="336.4" width="47.3" height="4.8" fill="#e6550d" opacity="0.45"/>
<rect x="874.9" y="454.8" width="33.6" height="4.8" fill="#a63603" opacity="0.45"/>
<rect x="885.3" y="449.1" width="12.8" height="4.8" fill="#a63603" opacity="0.45"/>
<rect x="857.5" y="437.9" width="68.3" height="4.8" fill="#a63603" opacity="0.45"/>
<rect x="878.1" y="426.6" width="27.1" height="4.8" fill="#a63603" opacity="0.45"/>
<rect x="833.8" y="415.3" width="115.7" height="4.8" fill="#a63603" opacity="0.45"/>
<rect x="859.0" y="392.8" width="65.4" height="4.8" fill="#a63603" opacity="0.45"/>
<rect x="883.2" y="375.9" width="16.9" height="4.8" fill="#a63603" opacity="0.45"/>
<rect x="884.9" y="364.6" width="13.6" height="4.8" fill="#a63603" opacity="0.45"/>
<rect x="888.0" y="336.4" width="7.3" height="4.8" fill="#a63603" opacity="0.45"/>
<polyline fill="none" stroke="#111" stroke-width="1.9" points="313.0,336.0 602.3,360.8 747.0,389.0 891.7,419.0"/>
<circle cx="313.0" cy="336.0" r="3.1" fill="#111"/>
<circle cx="602.3" cy="360.8" r="3.1" fill="#111"/>
<circle cx="747.0" cy="389.0" r="3.1" fill="#111"/>
<circle cx="891.7" cy="419.0" r="3.1" fill="#111"/>
<text x="22" y="569.0" font-size="10.5" text-anchor="end" fill="#333" transform="rotate(-90 22 569.0)">3 · freedom dial (log)</text>
<text x="84" y="615.5" font-size="9" text-anchor="end" fill="#777">1</text>
<text x="84" y="529.5" font-size="9" text-anchor="end" fill="#777">288</text>
<polyline fill="none" stroke="#111" stroke-width="1.9" points="313.0,601.5 457.7,612.0 602.3,584.8 747.0,563.7 891.7,526.0"/>
<text x="168" y="569" font-size="18" fill="#c00" text-anchor="middle">×</text>
<circle cx="313.0" cy="601.5" r="3.4" fill="#2171b5" stroke="#111"/>
<text x="313" y="592" font-size="9.5" text-anchor="middle" fill="#333">2</text>
<circle cx="457.7" cy="612.0" r="3.4" fill="#6baed6" stroke="#111"/>
<text x="458" y="603" font-size="9.5" text-anchor="middle" fill="#333">1</text>
<circle cx="602.3" cy="584.8" r="3.4" fill="#fdae6b" stroke="#111"/>
<text x="602" y="576" font-size="9.5" text-anchor="middle" fill="#333">6</text>
<circle cx="747.0" cy="563.7" r="3.4" fill="#e6550d" stroke="#111"/>
<text x="747" y="555" font-size="9.5" text-anchor="middle" fill="#333">24</text>
<circle cx="891.7" cy="526.0" r="3.4" fill="#a63603" stroke="#111"/>
<text x="892" y="517" font-size="9.5" text-anchor="middle" fill="#333">288</text>
<text x="530" y="642" font-size="11" text-anchor="middle" fill="#444">clue count (descending) →   (‡ = INSUFFICIENT: region exists, below the pre-declared floor)</text>
</svg>
