<svg xmlns="http://www.w3.org/2000/svg" width="934" height="280" viewBox="0 0 934 280">
<rect width="934" height="280" fill="white"/>
<text x="28" y="30" font-family="system-ui,sans-serif" font-size="16" font-weight="600">number-theoretic — excess along the declared ramp</text>
<text x="28" y="48" font-family="system-ui,sans-serif" font-size="11" fill="#666">DESCRIPTIVE — no verdict, no score. All 12 trajectories in this family are shown; each panel is one row and region, one line per flavour.</text>
<line x1="28" y1="64" x2="44" y2="64" stroke="#1f77b4" stroke-width="2.2"/>
<text x="49" y="68" font-size="10.5" fill="#333">majority</text>
<line x1="114" y1="64" x2="130" y2="64" stroke="#d62728" stroke-width="2.2"/>
<text x="135" y="68" font-size="10.5" fill="#333">minority</text>
<line x1="200" y1="64" x2="216" y2="64" stroke="#2ca02c" stroke-width="2.2"/>
<text x="221" y="68" font-size="10.5" fill="#333">min</text>
<line x1="251" y1="64" x2="267" y2="64" stroke="#9467bd" stroke-width="2.2"/>
<text x="272" y="68" font-size="10.5" fill="#333">max</text>
<text x="906" y="68" font-size="10.5" text-anchor="end" fill="#666">× = no reading (gap, never interpolated)   ○ = below the pre-declared r floor</text>
<rect x="40" y="96" width="268" height="150" fill="#fbfbfc" stroke="#e2e2e6"/>
<line x1="40" y1="146.1" x2="308" y2="146.1" stroke="#c8c8cc" stroke-dasharray="3 3"/>
<text x="40" y="90" font-size="11" font-weight="600" fill="#222">knapsack · feasible</text>
<text x="35" y="249.5" font-size="9" text-anchor="end" fill="#777">-0.963</text>
<text x="35" y="99.5" font-size="9" text-anchor="end" fill="#777">+0.482</text>
<polyline fill="none" stroke="#1f77b4" stroke-width="1.7" points="40.0,242.8 107.0,239.2 174.0,227.1 241.0,204.0 308.0,177.6"/>
<circle cx="40.0" cy="242.8" r="2.4" fill="#1f77b4"/>
<circle cx="107.0" cy="239.2" r="2.4" fill="#1f77b4"/>
<circle cx="174.0" cy="227.1" r="2.4" fill="#1f77b4"/>
<circle cx="241.0" cy="204.0" r="2.4" fill="#1f77b4"/>
<circle cx="308.0" cy="177.6" r="2.4" fill="#1f77b4"/>
<polyline fill="none" stroke="#9467bd" stroke-width="1.7" points="40.0,157.4 107.0,146.6 174.0,135.4 241.0,115.6 308.0,96.0"/>
<circle cx="40.0" cy="157.4" r="2.4" fill="#9467bd"/>
<circle cx="107.0" cy="146.6" r="2.4" fill="#9467bd"/>
<circle cx="174.0" cy="135.4" r="2.4" fill="#9467bd"/>
<circle cx="241.0" cy="115.6" r="2.4" fill="#9467bd"/>
<circle cx="308.0" cy="96.0" r="2.4" fill="#9467bd"/>
<polyline fill="none" stroke="#2ca02c" stroke-width="1.7" points="40.0,246.0 107.0,242.1 174.0,231.1 241.0,208.8 308.0,182.7"/>
<circle cx="40.0" cy="246.0" r="2.4" fill="#2ca02c"/>
<circle cx="107.0" cy="242.1" r="2.4" fill="#2ca02c"/>
<circle cx="174.0" cy="231.1" r="2.4" fill="#2ca02c"/>
<circle cx="241.0" cy="208.8" r="2.4" fill="#2ca02c"/>
<circle cx="308.0" cy="182.7" r="2.4" fill="#2ca02c"/>
<polyline fill="none" stroke="#d62728" stroke-width="1.7" points="40.0,162.1 107.0,159.2 174.0,156.7 241.0,150.8 308.0,147.0"/>
<circle cx="40.0" cy="162.1" r="2.4" fill="#d62728"/>
<circle cx="107.0" cy="159.2" r="2.4" fill="#d62728"/>
<circle cx="174.0" cy="156.7" r="2.4" fill="#d62728"/>
<circle cx="241.0" cy="150.8" r="2.4" fill="#d62728"/>
<circle cx="308.0" cy="147.0" r="2.4" fill="#d62728"/>
<rect x="338" y="96" width="268" height="150" fill="#fbfbfc" stroke="#e2e2e6"/>
<line x1="338" y1="160.8" x2="606" y2="160.8" stroke="#c8c8cc" stroke-dasharray="3 3"/>
<text x="338" y="90" font-size="11" font-weight="600" fill="#222">knapsack · optimal</text>
<text x="333" y="249.5" font-size="9" text-anchor="end" fill="#777">-0.082</text>
<text x="333" y="99.5" font-size="9" text-anchor="end" fill="#777">+0.062</text>
<polyline fill="none" stroke="#1f77b4" stroke-width="1.7" points="338.0,187.1 405.0,190.7 472.0,187.9 539.0,181.7 606.0,189.5"/>
<circle cx="338.0" cy="187.1" r="2.4" fill="#1f77b4"/>
<circle cx="405.0" cy="190.7" r="2.4" fill="#1f77b4"/>
<circle cx="472.0" cy="187.9" r="2.4" fill="#1f77b4"/>
<circle cx="539.0" cy="181.7" r="2.4" fill="#1f77b4"/>
<circle cx="606.0" cy="189.5" r="2.4" fill="#1f77b4"/>
<polyline fill="none" stroke="#9467bd" stroke-width="1.7" points="338.0,121.2 405.0,120.0 472.0,107.3 539.0,101.0 606.0,96.0"/>
<circle cx="338.0" cy="121.2" r="2.4" fill="#9467bd"/>
<circle cx="405.0" cy="120.0" r="2.4" fill="#9467bd"/>
<circle cx="472.0" cy="107.3" r="2.4" fill="#9467bd"/>
<circle cx="539.0" cy="101.0" r="2.4" fill="#9467bd"/>
<circle cx="606.0" cy="96.0" r="2.4" fill="#9467bd"/>
<polyline fill="none" stroke="#2ca02c" stroke-width="1.7" points="338.0,131.3 405.0,121.6 472.0,110.4 539.0,99.4 606.0,98.7"/>
<circle cx="338.0" cy="131.3" r="2.4" fill="#2ca02c"/>
<circle cx="405.0" cy="121.6" r="2.4" fill="#2ca02c"/>
<circle cx="472.0" cy="110.4" r="2.4" fill="#2ca02c"/>
<circle cx="539.0" cy="99.4" r="2.4" fill="#2ca02c"/>
<circle cx="606.0" cy="98.7" r="2.4" fill="#2ca02c"/>
<polyline fill="none" stroke="#d62728" stroke-width="1.7" points="338.0,242.9 405.0,246.0 472.0,243.0 539.0,235.9 606.0,242.4"/>
<circle cx="338.0" cy="242.9" r="2.4" fill="#d62728"/>
<circle cx="405.0" cy="246.0" r="2.4" fill="#d62728"/>
<circle cx="472.0" cy="243.0" r="2.4" fill="#d62728"/>
<circle cx="539.0" cy="235.9" r="2.4" fill="#d62728"/>
<circle cx="606.0" cy="242.4" r="2.4" fill="#d62728"/>
<rect x="636" y="96" width="268" height="150" fill="#fbfbfc" stroke="#e2e2e6"/>
<line x1="636" y1="168.1" x2="904" y2="168.1" stroke="#c8c8cc" stroke-dasharray="3 3"/>
<text x="636" y="90" font-size="11" font-weight="600" fill="#222">subset-sum · solutions</text>
<text x="631" y="249.5" font-size="9" text-anchor="end" fill="#777">-0.097</text>
<text x="631" y="99.5" font-size="9" text-anchor="end" fill="#777">+0.089</text>
<polyline fill="none" stroke="#1f77b4" stroke-width="1.7" points="636.0,191.7 703.0,180.3 770.0,180.2 837.0,168.4 904.0,188.7"/>
<circle cx="636.0" cy="191.7" r="2.4" fill="#1f77b4"/>
<circle cx="703.0" cy="180.3" r="2.4" fill="#1f77b4"/>
<circle cx="770.0" cy="180.2" r="2.4" fill="#1f77b4"/>
<circle cx="837.0" cy="168.4" r="2.4" fill="#1f77b4"/>
<circle cx="904.0" cy="188.7" r="2.4" fill="#1f77b4"/>
<polyline fill="none" stroke="#9467bd" stroke-width="1.7" points="636.0,96.0 703.0,114.8 770.0,117.8 837.0,120.7 904.0,124.2"/>
<circle cx="636.0" cy="96.0" r="2.4" fill="#9467bd"/>
<circle cx="703.0" cy="114.8" r="2.4" fill="#9467bd"/>
<circle cx="770.0" cy="117.8" r="2.4" fill="#9467bd"/>
<circle cx="837.0" cy="120.7" r="2.4" fill="#9467bd"/>
<circle cx="904.0" cy="124.2" r="2.4" fill="#9467bd"/>
<polyline fill="none" stroke="#2ca02c" stroke-width="1.7" points="636.0,99.6 703.0,110.4 770.0,120.9 837.0,122.5 904.0,123.4"/>
<circle cx="636.0" cy="99.6" r="2.4" fill="#2ca02c"/>
<circle cx="703.0" cy="110.4" r="2.4" fill="#2ca02c"/>
<circle cx="770.0" cy="120.9" r="2.4" fill="#2ca02c"/>
<circle cx="837.0" cy="122.5" r="2.4" fill="#2ca02c"/>
<circle cx="904.0" cy="123.4" r="2.4" fill="#2ca02c"/>
<polyline fill="none" stroke="#d62728" stroke-width="1.7" points="636.0,246.0 703.0,237.7 770.0,235.0 837.0,224.0 904.0,245.0"/>
<circle cx="636.0" cy="246.0" r="2.4" fill="#d62728"/>
<circle cx="703.0" cy="237.7" r="2.4" fill="#d62728"/>
<circle cx="770.0" cy="235.0" r="2.4" fill="#d62728"/>
<circle cx="837.0" cy="224.0" r="2.4" fill="#d62728"/>
<circle cx="904.0" cy="245.0" r="2.4" fill="#d62728"/>
</svg>
